<?xml version="1.0" encoding="UTF-8"?>
<svg width="700pt" height="700pt" version="1.1" viewBox="0 0 700 700" xmlns="http://www.w3.org/2000/svg" xmlns:xlink="http://www.w3.org/1999/xlink">
 <g>
  <path d="m260.4 134.4c0-46.391 37.609-84 84-84 46.395 0 84 37.609 84 84v78.402c0 6.1836 5.0156 11.199 11.203 11.199 6.1836 0 11.199-5.0156 11.199-11.199v-78.402c0-58.762-47.637-106.4-106.4-106.4-58.762 0-106.4 47.637-106.4 106.4v78.402c0 6.1836 5.0156 11.199 11.199 11.199 6.1875 0 11.199-5.0156 11.199-11.199zm-48.242 16.801h9.043v33.602h-9.043c-5.7812 0-10.609 4.3945-11.152 10.148l-27.398 291.2c-0.61719 6.5703 4.5508 12.246 11.152 12.246h330.48c6.5977 0 11.77-5.6758 11.148-12.246l-27.395-291.2c-0.54297-5.7539-5.375-10.148-11.152-10.148h-20.242v-33.602h20.242c23.117 0 42.438 17.59 44.602 40.605l27.398 291.2c2.4727 26.285-18.203 48.996-44.602 48.996h-330.48c-26.402 0-47.078-22.711-44.602-48.996l27.395-291.2c2.168-23.016 21.488-40.605 44.605-40.605zm199.45 0v33.602h-134.4v-33.602z" fill-rule="evenodd"/>
  <use x="70" y="644" xlink:href="#v"/>
  <use x="90.550781" y="644" xlink:href="#d"/>
  <use x="104.359375" y="644" xlink:href="#a"/>
  <use x="123.347656" y="644" xlink:href="#f"/>
  <use x="142.242188" y="644" xlink:href="#c"/>
  <use x="155.628906" y="644" xlink:href="#a"/>
  <use x="174.617188" y="644" xlink:href="#j"/>
  <use x="204.410156" y="644" xlink:href="#e"/>
  <use x="224.453125" y="644" xlink:href="#i"/>
  <use x="252.453125" y="644" xlink:href="#h"/>
  <use x="275.695312" y="644" xlink:href="#f"/>
  <use x="294.585938" y="644" xlink:href="#u"/>
  <use x="312.839844" y="644" xlink:href="#a"/>
  <use x="341.578125" y="644" xlink:href="#t"/>
  <use x="363.140625" y="644" xlink:href="#b"/>
  <use x="382.375" y="644" xlink:href="#e"/>
  <use x="402.417969" y="644" xlink:href="#s"/>
  <use x="419.085938" y="644" xlink:href="#b"/>
  <use x="438.320312" y="644" xlink:href="#g"/>
  <use x="70" y="672" xlink:href="#r"/>
  <use x="82.183594" y="672" xlink:href="#d"/>
  <use x="95.992188" y="672" xlink:href="#b"/>
  <use x="115.226562" y="672" xlink:href="#q"/>
  <use x="154.152344" y="672" xlink:href="#c"/>
  <use x="167.535156" y="672" xlink:href="#p"/>
  <use x="187.46875" y="672" xlink:href="#a"/>
  <use x="216.207031" y="672" xlink:href="#o"/>
  <use x="239.640625" y="672" xlink:href="#b"/>
  <use x="258.878906" y="672" xlink:href="#n"/>
  <use x="278.8125" y="672" xlink:href="#g"/>
  <use x="308.492188" y="672" xlink:href="#m"/>
  <use x="329.015625" y="672" xlink:href="#d"/>
  <use x="342.820312" y="672" xlink:href="#b"/>
  <use x="362.058594" y="672" xlink:href="#l"/>
  <use x="371.65625" y="672" xlink:href="#a"/>
  <use x="390.648438" y="672" xlink:href="#k"/>
  <use x="407.242188" y="672" xlink:href="#c"/>
 </g>
</svg>
