<?xml version="1.0" encoding="UTF-8"?>
<svg width="700pt" height="700pt" version="1.1" viewBox="0 0 700 700" xmlns="http://www.w3.org/2000/svg" xmlns:xlink="http://www.w3.org/1999/xlink">
 <g>
  <path d="m97.82 126.5 279.72 279.72c17.828 17.828 14.453 50.109 0 64.562-17.828 17.828-46.734 17.828-64.562 0l-279.72-279.72c-17.828-17.828-14.453-50.109 0-64.562 17.828-17.828 46.734-17.828 64.562 0z" fill-rule="evenodd"/>
  <path d="m322.39 406.22 279.72-279.72c17.828-17.828 50.109-14.453 64.562 0 17.828 17.828 17.828 46.734 0 64.562l-279.72 279.72c-17.828 17.828-50.109 14.453-64.562 0-17.828-17.828-17.828-46.734 0-64.562z" fill-rule="evenodd"/>
  <use y="732.335938" xlink:href="#l"/>
  <use x="55.839844" y="732.335938" xlink:href="#h"/>
  <use x="93.363281" y="732.335938" xlink:href="#a"/>
  <use x="144.964844" y="732.335938" xlink:href="#g"/>
  <use x="196.308594" y="732.335938" xlink:href="#f"/>
  <use x="232.683594" y="732.335938" xlink:href="#a"/>
  <use x="284.285156" y="732.335938" xlink:href="#e"/>
  <use x="365.238281" y="732.335938" xlink:href="#d"/>
  <use x="419.703125" y="732.335938" xlink:href="#c"/>
  <use x="495.792969" y="732.335938" xlink:href="#b"/>
  <use x="554.75" y="732.335938" xlink:href="#a"/>
  <use x="606.355469" y="732.335938" xlink:href="#k"/>
  <use x="655.953125" y="732.335938" xlink:href="#j"/>
  <use x="682.035156" y="732.335938" xlink:href="#i"/>
 </g>
</svg>
