<?xml version="1.0" encoding="UTF-8"?>
<svg width="700pt" height="700pt" version="1.1" viewBox="0 0 700 700" xmlns="http://www.w3.org/2000/svg" xmlns:xlink="http://www.w3.org/1999/xlink">
 <g>
  <path d="m481.94 132.75c-4.207-0.019531-8.2617-1.5664-11.414-4.3555-3.1523-2.7891-5.1836-6.625-5.7148-10.797-0.53516-4.1719 0.46484-8.3984 2.8125-11.891l31.125-46.234c0.94922-1.4062 0.96484-3.2461 0.039062-4.668-0.92578-1.4258-2.6094-2.1602-4.2812-1.8672l-32.125 5.6211h-0.003906c-1.7188 0.31641-3.4961-0.066406-4.9336-1.0664s-2.4141-2.5312-2.7148-4.2578c-0.30469-1.7227 0.097656-3.4961 1.1094-4.9258 1.0117-1.4258 2.5508-2.3906 4.2773-2.6758l32.125-5.6211 0.003906-0.003907c4.4922-0.78516 9.1172 0.23047 12.871 2.8281 3.75 2.5977 6.3281 6.5703 7.1758 11.055 0.84766 4.4844-0.10547 9.1211-2.6523 12.906l-31.105 46.234h-0.003906c-0.98828 1.4766-0.94922 3.4141 0.097656 4.8516 1.043 1.4375 2.875 2.0703 4.5859 1.5859l62.527-20.004c3.4531-1.1016 7.1484 0.80078 8.25 4.2539 1.1055 3.4531-0.79688 7.1445-4.25 8.25l-62.734 20.055c-1.6484 0.47656-3.3516 0.72266-5.0664 0.72656z"/>
  <path d="m603.36 74.641c-0.26953 0-0.53906-0.015625-0.80859-0.050781l-29.926-3.6875c-5.3438-0.65625-9.7109-4.5859-10.922-9.8359-1.2109-5.2461 0.98438-10.691 5.5039-13.629l26.484-17.203-17.695-4.125c-3.5312-0.82031-5.7266-4.3516-4.9023-7.8828 0.82031-3.5273 4.3516-5.7227 7.8789-4.8984l18.402 4.2891v-0.003907c5.0039 1.168 8.8281 5.207 9.7148 10.27 0.89062 5.0586-1.3281 10.16-5.6367 12.961l-26.359 17.137 29.086 3.582v0.003906c3.4453 0.41797 5.9648 3.4492 5.7539 6.9102-0.21094 3.4648-3.082 6.168-6.5508 6.1641z"/>
  <path d="m598.59 144.76c-0.26953 0-0.53906-0.019531-0.80859-0.054688l-19.711-2.4297 0.003906 0.003906c-4.457-0.54688-8.0977-3.8242-9.1055-8.1992-1.0078-4.375 0.82812-8.9102 4.5938-11.355l13.012-8.4648-6.5312-1.5195c-3.5312-0.82031-5.7266-4.3516-4.9023-7.8789 0.82031-3.5312 4.3516-5.7266 7.8789-4.9023l12.117 2.8203h0.003907c4.168 0.97266 7.3555 4.3398 8.0938 8.5586 0.74219 4.2148-1.1055 8.4648-4.6953 10.801l-12.207 7.9336 13.047 1.6133c3.4297 0.4375 5.9336 3.457 5.7227 6.9062-0.20703 3.4492-3.0586 6.1484-6.5156 6.168z"/>
  <path d="m333.63 543.87c-62.281 0.12891-124.32-7.6953-184.62-23.277-2.3828-0.63672-4.8594-0.83594-7.3125-0.58984-18.266 1.9766-36.594 2.5078-42.555-14.047-3.6602-10.156 3.7891-20.445 7.3711-25.375 2.1562-3.1133 2.8477-7.0078 1.8906-10.668-22.281-93.152-21.227-186.96 3.0039-271.58h0.003906c0.42969-1.5625 0.46484-3.2109 0.089844-4.7891-3.332-14.668-0.98828-25.172 6.7539-29.816 8.7969-5.2852 20.562-1.9062 37.949 3.7305 1.293 0.42188 2.6836 0.4375 3.9883 0.054688 87.312-26.203 271.06-38.785 380.76-0.13281h-0.003906c2.1914 0.79297 4.5898 0.79297 6.7773 0 15.918-5.8711 31.324-4.9453 39.262 2.332 6.1719 5.6523 5.1172 16.574 2.3438 24.207-0.81641 2.0898-0.97266 4.3828-0.4375 6.5625 23.879 84.832 24.5 178.65 1.8242 271.8-0.59766 2.4023-0.074219 4.9492 1.4219 6.9258 5.1055 6.668 10.16 15.973 8.7266 25.516h0.003906c-0.9375 5.3789-4.3203 10.016-9.1562 12.551-9.1406 5.25-22.395 5.043-36.383-0.54688-2.9375-0.96094-6.0664-1.1914-9.1133-0.66797-69.414 18.148-140.84 27.496-212.58 27.816zm-181.34-35.98c122.86 31.938 254.29 30.391 390.66-4.5664v-0.003907c5.7461-1.207 11.711-0.79297 17.234 1.1953 11.891 4.7461 20.703 3.8125 24.984 1.3516 1.3008-0.60938 2.2852-1.7383 2.7148-3.1094 0.77344-5.1797-3.0117-12.738-10.129-20.219-1.5586-1.6367-2.1641-3.9648-1.6016-6.1523 23.949-93.328 23.984-187.51 0.10156-272.37-1.3008-4.8242-1.0469-9.9375 0.72266-14.609 1.5273-3.1875 1.8672-6.8164 0.95312-10.23-2.4414-2.9062-12.805-4.25-25.695 0.48828-5.0547 1.8438-10.594 1.8711-15.668 0.074219-98.934-34.863-283.59-27.824-376.44 1.4961-1.3008 0.41797-2.7031 0.41797-4.0078 0l-0.92188-0.30078c-13.969-4.5469-26.023-8.4648-30.215-5.957-1.75 1.0469-3.2227 7.1953 0.21875 19.25v-0.003907c0.34766 1.1992 0.34766 2.4688 0 3.668-24.75 83.504-26.148 176.52-4.0352 268.97h0.003906c1.8477 7.3867 0.375 15.211-4.0312 21.418-1.9023 2.625-6.9609 9.625-5.6523 13.242 1.5625 4.3398 4.957 8.0273 28.801 5.4531 4.0234-0.42578 8.0898-0.11719 12 0.91406z"/>
  <use x="70" y="625.625" xlink:href="#u"/>
  <use x="86.054688" y="625.625" xlink:href="#b"/>
  <use x="96.839844" y="625.625" xlink:href="#a"/>
  <use x="111.679687" y="625.625" xlink:href="#k"/>
  <use x="126.4375" y="625.625" xlink:href="#c" />
  <use x="136.894531" y="625.625" xlink:href="#a"/>
  <use x="151.730469" y="625.625" xlink:href="#j"/>
  <use x="175.007812" y="625.625" xlink:href="#i"/>
  <use x="190.664062" y="625.625" xlink:href="#h"/>
  <use x="212.539062" y="625.625" xlink:href="#g"/>
  <use x="229.46875" y="625.625" xlink:href="#t"/>
  <use x="236.96875" y="625.625" xlink:href="#f"/>
  <use x="249.933594" y="625.625" xlink:href="#c"/>
  <use x="260.390625" y="625.625" xlink:href="#d"/>
  <use x="275.421875" y="625.625" xlink:href="#b"/>
  <use x="286.207031" y="625.625" xlink:href="#e"/>
  <use x="301.78125" y="625.625" xlink:href="#s"/>
  <use x="309.277344" y="625.625" xlink:href="#a"/>
  <use x="324.117188" y="625.625" xlink:href="#b"/>
  <use x="70" y="647.5" xlink:href="#r"/>
  <use x="79.515625" y="647.5" xlink:href="#b"/>
  <use x="90.304688" y="647.5" xlink:href="#d"/>
  <use x="105.332031" y="647.5" xlink:href="#q"/>
  <use x="135.742188" y="647.5" xlink:href="#c"/>
  <use x="146.199219" y="647.5" xlink:href="#p"/>
  <use x="161.773438" y="647.5" xlink:href="#a"/>
  <use x="184.222656" y="647.5" xlink:href="#o"/>
  <use x="202.53125" y="647.5" xlink:href="#d"/>
  <use x="217.558594" y="647.5" xlink:href="#e"/>
  <use x="233.132812" y="647.5" xlink:href="#n"/>
  <use x="256.320312" y="647.5" xlink:href="#m"/>
  <use x="272.355469" y="647.5" xlink:href="#b"/>
  <use x="283.140625" y="647.5" xlink:href="#d"/>
  <use x="298.171875" y="647.5" xlink:href="#l"/>
  <use x="305.667969" y="647.5" xlink:href="#a"/>
  <use x="320.503906" y="647.5" xlink:href="#f"/>
  <use x="333.472656" y="647.5" xlink:href="#c"/>
 </g>
</svg>
