<?xml version="1.0" encoding="UTF-8"?>
<svg width="700pt" height="700pt" version="1.1" viewBox="0 0 700 700" xmlns="http://www.w3.org/2000/svg" xmlns:xlink="http://www.w3.org/1999/xlink">
 <g>
  <path d="m347.92 162.4c90.387 0.57422 193.75 20.059 234.82 95.402 14.191 5.5391 22.012 19.258 18.371 32.562-3.3438 11.352-15.195 17.164-27.82 16.371-42.57 42.953-79.547 56.922-146.28 73.223-20.062 28.527-50.328 17.543-71.215 1.4062-107.82-0.55859-191.33-27.637-229.4-81.496-15.027-1.3555-29.34-11.492-28.348-26.754 1.1953-13.734 12.551-23.719 27.648-28.164 49.238-66.426 149.73-82.555 222.22-82.555zm0 22.531c-70.164 0-166.35 18.121-206.65 76.039-1.5977 2.3125-4.0898 3.9805-6.8242 4.5781-10.344 2.1641-13.922 8.6367-14 9.5039 2.0898 1.6797 8.8711 2.9688 11.723 2.9922 3.7266 0 7.4102 1.9648 9.4492 5.1055 29.648 46.477 108.74 75.863 217.5 75.863 2.5977 0 5.1836 0.96094 7.1758 2.6406 14.848 12.801 35.203 20.77 43.57 3.6953 1.4648-2.9805 4.3047-5.2383 7.5234-5.9844 71.617-17.273 101.02-27.238 144.01-72.168 2.7539-2.8164 7.0508-4.0039 10.848-2.9922 7.1875 1.8789 7.4648-0.56641 7.3477-0.17188-1.5898-3.0078-6.3555-6.2422-9.2734-7.5703-2.3672-1.1094-4.3242-3.0781-5.4258-5.457-43.543-68.215-143.07-85.258-216.97-86.074zm-169.38 50.691c89.816 11.293 117.03 18.746 195.98 81.145 7.1992 2.8594 14.098-0.64453 19.949-5.8086 45.152-34.066 75.934-52.348 133.33-63.895 5.9492-1.7773 12.957 2.4688 14.172 8.5898 1.2188 6.1211-3.6289 12.754-9.7969 13.414-54.586 10.98-79.797 26.496-124.23 60.023-15.879 11.621-34.059 15.602-48.293 4.5781-76.734-60.535-95.043-64.516-183.9-75.688-5.8633-0.27344-10.949-5.8945-10.672-11.793 0.83203-6.2227 6.7773-10.812 13.473-10.562zm374.71 49.961c0.25781 5.4531-4.0039 10.754-9.3594 11.648-21.324 5.3633-21.289 6.1562-32.723 23.41-2.0078 3.0898-5.6055 5.0703-9.2734 5.1055-32.352 0-38.449 3.7031-60.367 20.242-4.7188 3.5508-12.223 2.4609-15.75-2.2852-3.5273-4.7461-2.4414-12.297 2.2773-15.844 21.566-16.27 37.684-23.473 68.59-24.289 10.547-14.434 20.906-22.902 41.82-28.164 8.1523-2 14.312 4.1562 14.781 10.18z"/>
  <use x="70" y="644" xlink:href="#u"/>
  <use x="90.550781" y="644" xlink:href="#b"/>
  <use x="104.359375" y="644" xlink:href="#a"/>
  <use x="123.347656" y="644" xlink:href="#k"/>
  <use x="142.242188" y="644" xlink:href="#c"/>
  <use x="155.628906" y="644" xlink:href="#a"/>
  <use x="174.617188" y="644" xlink:href="#j"/>
  <use x="204.410156" y="644" xlink:href="#i"/>
  <use x="224.453125" y="644" xlink:href="#h"/>
  <use x="252.453125" y="644" xlink:href="#g"/>
  <use x="276.253906" y="644" xlink:href="#b"/>
  <use x="290.0625" y="644" xlink:href="#t"/>
  <use x="299.660156" y="644" xlink:href="#f"/>
  <use x="329.34375" y="644" xlink:href="#s"/>
  <use x="345.640625" y="644" xlink:href="#e"/>
  <use x="365.570312" y="644" xlink:href="#e"/>
  <use x="70" y="672" xlink:href="#r"/>
  <use x="82.183594" y="672" xlink:href="#b"/>
  <use x="95.992188" y="672" xlink:href="#d"/>
  <use x="115.226562" y="672" xlink:href="#q"/>
  <use x="154.152344" y="672" xlink:href="#c"/>
  <use x="167.535156" y="672" xlink:href="#p"/>
  <use x="187.46875" y="672" xlink:href="#a"/>
  <use x="216.207031" y="672" xlink:href="#o"/>
  <use x="239.640625" y="672" xlink:href="#d"/>
  <use x="258.878906" y="672" xlink:href="#e"/>
  <use x="278.8125" y="672" xlink:href="#f"/>
  <use x="308.492188" y="672" xlink:href="#n"/>
  <use x="329.015625" y="672" xlink:href="#b"/>
  <use x="342.820312" y="672" xlink:href="#d"/>
  <use x="362.058594" y="672" xlink:href="#m"/>
  <use x="371.65625" y="672" xlink:href="#a"/>
  <use x="390.648438" y="672" xlink:href="#l"/>
  <use x="407.242188" y="672" xlink:href="#c"/>
 </g>
</svg>
