<?xml version="1.0" encoding="UTF-8"?>
<svg width="700pt" height="700pt" version="1.1" viewBox="0 0 700 700" xmlns="http://www.w3.org/2000/svg" xmlns:xlink="http://www.w3.org/1999/xlink">
 <g>
  <path d="m616.79 246.96-184.35-184.35c-8.3828-8.8203-19.969-13.883-32.137-14.039-12.164-0.15625-23.879 4.6016-32.484 13.203-8.6055 8.5977-13.379 20.309-13.23 32.473 0.14844 12.164 5.1992 23.758 14.012 32.145l108.97 108.81h-362.43c-16.125 0-31.027 8.6055-39.09 22.57-8.0625 13.965-8.0625 31.168 0 45.133s22.965 22.57 39.09 22.57h361.42l-107.96 108.14c-10.926 11.492-15.016 27.875-10.777 43.156 4.2383 15.281 16.184 27.215 31.469 31.441 15.281 4.2227 31.664 0.11719 43.148-10.816l184.35-184.35c8.4961-8.4453 13.254-19.941 13.215-31.918 0.03125-0.375 0.03125-0.75 0-1.1211 0.027344-0.37109 0.027344-0.74609 0-1.1211-0.003906-11.969-4.7578-23.449-13.215-31.918z"/>
  <use x="70" y="644" xlink:href="#x"/>
  <use x="90.550781" y="644" xlink:href="#d"/>
  <use x="104.359375" y="644" xlink:href="#a"/>
  <use x="123.347656" y="644" xlink:href="#g"/>
  <use x="142.242188" y="644" xlink:href="#c"/>
  <use x="155.628906" y="644" xlink:href="#a"/>
  <use x="174.617188" y="644" xlink:href="#l"/>
  <use x="204.410156" y="644" xlink:href="#f"/>
  <use x="224.453125" y="644" xlink:href="#k"/>
  <use x="252.453125" y="644" xlink:href="#j"/>
  <use x="274.011719" y="644" xlink:href="#g"/>
  <use x="292.90625" y="644" xlink:href="#i"/>
  <use x="302.503906" y="644" xlink:href="#e"/>
  <use x="322.4375" y="644" xlink:href="#f"/>
  <use x="342.480469" y="644" xlink:href="#b"/>
  <use x="361.71875" y="644" xlink:href="#w"/>
  <use x="397.332031" y="644" xlink:href="#v"/>
  <use x="420.574219" y="644" xlink:href="#a"/>
  <use x="439.5625" y="644" xlink:href="#h"/>
  <use x="456.230469" y="644" xlink:href="#i"/>
  <use x="465.828125" y="644" xlink:href="#u"/>
  <use x="485.871094" y="644" xlink:href="#e"/>
  <use x="505.804688" y="644" xlink:href="#h"/>
  <use x="70" y="672" xlink:href="#t"/>
  <use x="82.183594" y="672" xlink:href="#d"/>
  <use x="95.992188" y="672" xlink:href="#b"/>
  <use x="115.226562" y="672" xlink:href="#s"/>
  <use x="154.152344" y="672" xlink:href="#c"/>
  <use x="167.535156" y="672" xlink:href="#r"/>
  <use x="187.46875" y="672" xlink:href="#a"/>
  <use x="216.207031" y="672" xlink:href="#q"/>
  <use x="239.640625" y="672" xlink:href="#b"/>
  <use x="258.878906" y="672" xlink:href="#p"/>
  <use x="278.8125" y="672" xlink:href="#e"/>
  <use x="308.492188" y="672" xlink:href="#o"/>
  <use x="329.015625" y="672" xlink:href="#d"/>
  <use x="342.820312" y="672" xlink:href="#b"/>
  <use x="362.058594" y="672" xlink:href="#n"/>
  <use x="371.65625" y="672" xlink:href="#a"/>
  <use x="390.648438" y="672" xlink:href="#m"/>
  <use x="407.242188" y="672" xlink:href="#c"/>
 </g>
</svg>
