<?xml version="1.0" encoding="UTF-8"?>
<svg width="700pt" height="700pt" version="1.1" viewBox="0 0 700 700" xmlns="http://www.w3.org/2000/svg" xmlns:xlink="http://www.w3.org/1999/xlink">
 <g>
  <path d="m549.92 127.12c0-4.457-1.7734-8.7305-4.9219-11.879-3.1523-3.1523-7.4258-4.9219-11.879-4.9219-71.68 0-126-20.719-171.36-64.961-3.1406-3.0781-7.3633-4.8008-11.762-4.8008s-8.6211 1.7227-11.762 4.8008c-45.359 44.242-99.68 64.961-171.36 64.961-4.4531 0-8.7266 1.7695-11.879 4.9219-3.1484 3.1484-4.9219 7.4219-4.9219 11.879 0 11.762 0 24.078-0.55859 36.961-2.2383 120.4-5.6016 285.04 194.88 354.48l5.6016 1.1211 5.6016-1.1211c200.48-69.441 197.12-234.08 194.88-354.48 0-12.879-0.55859-25.199-0.55859-36.957zm-216.72 351.12c-100.24-42-134.4-112-145.6-187.6l145.6 0.003906zm182.56-221.2h-148.96v-162.96c42 31.359 90.719 47.039 149.52 49.84 0 6.7188 0 14 0.55859 21.281 0.5625 29.68 1.1211 61.039-1.1172 91.84z"/>
  <use x="70" y="644" xlink:href="#v"/>
  <use x="90.550781" y="644" xlink:href="#d"/>
  <use x="104.359375" y="644" xlink:href="#a"/>
  <use x="123.347656" y="644" xlink:href="#k"/>
  <use x="142.242188" y="644" xlink:href="#c"/>
  <use x="155.628906" y="644" xlink:href="#a"/>
  <use x="174.617188" y="644" xlink:href="#f"/>
  <use x="204.410156" y="644" xlink:href="#j"/>
  <use x="224.453125" y="644" xlink:href="#i"/>
  <use x="252.453125" y="644" xlink:href="#h"/>
  <use x="274.121094" y="644" xlink:href="#u"/>
  <use x="283.71875" y="644" xlink:href="#f"/>
  <use x="303.761719" y="644" xlink:href="#a"/>
  <use x="322.75" y="644" xlink:href="#e"/>
  <use x="352.433594" y="644" xlink:href="#t"/>
  <use x="362.851562" y="644" xlink:href="#g"/>
  <use x="379.449219" y="644" xlink:href="#b"/>
  <use x="398.6875" y="644" xlink:href="#e"/>
  <use x="418.617188" y="644" xlink:href="#s"/>
  <use x="70" y="672" xlink:href="#r"/>
  <use x="82.183594" y="672" xlink:href="#d"/>
  <use x="95.992188" y="672" xlink:href="#b"/>
  <use x="115.226562" y="672" xlink:href="#q"/>
  <use x="154.152344" y="672" xlink:href="#c"/>
  <use x="167.535156" y="672" xlink:href="#p"/>
  <use x="187.46875" y="672" xlink:href="#a"/>
  <use x="216.207031" y="672" xlink:href="#o"/>
  <use x="239.640625" y="672" xlink:href="#b"/>
  <use x="258.878906" y="672" xlink:href="#n"/>
  <use x="278.8125" y="672" xlink:href="#e"/>
  <use x="308.492188" y="672" xlink:href="#m"/>
  <use x="329.015625" y="672" xlink:href="#d"/>
  <use x="342.820312" y="672" xlink:href="#b"/>
  <use x="362.058594" y="672" xlink:href="#l"/>
  <use x="371.65625" y="672" xlink:href="#a"/>
  <use x="390.648438" y="672" xlink:href="#g"/>
  <use x="407.242188" y="672" xlink:href="#c"/>
 </g>
</svg>
