<?xml version="1.0" encoding="UTF-8"?>
<svg width="700pt" height="700pt" version="1.1" viewBox="0 0 700 700" xmlns="http://www.w3.org/2000/svg" xmlns:xlink="http://www.w3.org/1999/xlink">
 <g>
  <path d="m350 28c-138.32 0-250.88 112.56-252 250.32-0.55859 67.199 25.199 131.04 72.801 178.64 47.039 48.16 110.32 74.48 177.52 75.039h1.6797c138.32 0 250.88-112.56 252-250.32 1.1211-138.88-111.44-252.56-252-253.68zm96.879 357.28c5.6016 6.7188 5.6016 16.801-1.1211 22.961-6.7188 5.6016-16.801 5.6016-22.961-1.1211l-85.117-91.84c-4.4805-4.4805-5.6016-11.199-2.8008-17.359 2.8008-5.6016 8.3984-9.5195 15.121-9.5195h20.16c28.559 0 52.078-23.52 52.078-52.078 0-28.559-23.52-52.078-52.078-52.078l-71.121-0.007813v214.48c0 8.9609-7.2812 16.238-16.238 16.238-8.9609 0-16.238-7.2812-16.238-16.238l-0.003906-230.72c0-8.9609 7.2812-16.238 16.238-16.238h87.359c46.48 0 84.559 38.078 84.559 84.559 0 41.441-29.68 75.602-68.879 82.879z"/>
  <use x="70" y="644" xlink:href="#w"/>
  <use x="90.550781" y="644" xlink:href="#c"/>
  <use x="104.359375" y="644" xlink:href="#a"/>
  <use x="123.347656" y="644" xlink:href="#e"/>
  <use x="142.242188" y="644" xlink:href="#d"/>
  <use x="155.628906" y="644" xlink:href="#a"/>
  <use x="174.617188" y="644" xlink:href="#l"/>
  <use x="204.410156" y="644" xlink:href="#k"/>
  <use x="224.453125" y="644" xlink:href="#j"/>
  <use x="252.453125" y="644" xlink:href="#i"/>
  <use x="280.3125" y="644" xlink:href="#e"/>
  <use x="299.210938" y="644" xlink:href="#c"/>
  <use x="313.015625" y="644" xlink:href="#a"/>
  <use x="332.007812" y="644" xlink:href="#h"/>
  <use x="360.375" y="644" xlink:href="#g"/>
  <use x="380.898438" y="644" xlink:href="#b"/>
  <use x="400.132812" y="644" xlink:href="#v"/>
  <use x="409.734375" y="644" xlink:href="#e"/>
  <use x="428.625" y="644" xlink:href="#h"/>
  <use x="447.25" y="644" xlink:href="#b"/>
  <use x="466.484375" y="644" xlink:href="#u"/>
  <use x="484.734375" y="644" xlink:href="#t"/>
  <use x="494.335937" y="644" xlink:href="#f"/>
  <use x="70" y="672" xlink:href="#s"/>
  <use x="82.183594" y="672" xlink:href="#c"/>
  <use x="95.992188" y="672" xlink:href="#b"/>
  <use x="115.226562" y="672" xlink:href="#r"/>
  <use x="154.152344" y="672" xlink:href="#d"/>
  <use x="167.535156" y="672" xlink:href="#q"/>
  <use x="187.46875" y="672" xlink:href="#a"/>
  <use x="216.207031" y="672" xlink:href="#p"/>
  <use x="239.640625" y="672" xlink:href="#b"/>
  <use x="258.878906" y="672" xlink:href="#o"/>
  <use x="278.8125" y="672" xlink:href="#n"/>
  <use x="308.492188" y="672" xlink:href="#g"/>
  <use x="329.015625" y="672" xlink:href="#c"/>
  <use x="342.820312" y="672" xlink:href="#b"/>
  <use x="362.058594" y="672" xlink:href="#m"/>
  <use x="371.65625" y="672" xlink:href="#a"/>
  <use x="390.648438" y="672" xlink:href="#f"/>
  <use x="407.242188" y="672" xlink:href="#d"/>
 </g>
</svg>
