<?xml version="1.0" encoding="UTF-8"?>
<svg width="700pt" height="700pt" version="1.1" viewBox="0 0 700 700" xmlns="http://www.w3.org/2000/svg" xmlns:xlink="http://www.w3.org/1999/xlink">
 <g>
  <path d="m434.25 68.758-8.7461 14.922c-30.004-14.887-72.652-30.066-121.69-32.848-57.773-3.2773-124.51 11.621-183.53 65.012l0.003907-0.003906c-3.5664 3.2227-5.5625 7.793-5.4922 12.562 0.074219 4.7656 2.207 9.2734 5.8672 12.391 3.6641 3.1172 8.5 4.5469 13.297 3.9258 27.68-3.2852 42.34-4.0508 57.34 4.4805 15 8.5352 21.66 21.422 32.609 46.684 1.4375 3.3594 3.9492 6.1641 7.1523 7.9844 3.2031 1.8242 6.9219 2.5625 10.594 2.1094 27.68-3.2852 42.34-4.0508 57.34 4.4805 13.32 7.5742 20.262 19.102 29.27 39.156l-92.648 158.1c-5.3555 1.7734-9.8438 5.457-12.578 10.328l-33.914 57.875c-3.1016 5.1211-3.9883 11.254-2.4609 17.023 1.5234 5.7695 5.332 10.699 10.574 13.68 5.2422 2.9805 11.477 3.7695 17.312 2.1836 5.8359-1.582 10.781-5.4062 13.734-10.609l33.914-57.875c2.8438-4.7422 3.8086-10.352 2.7031-15.746l92.738-158.25c22.133-2.3398 35.734-2.1797 49.055 5.3945 15 8.5312 21.656 21.422 32.609 46.684h-0.003906c1.4375 3.3594 3.9453 6.1641 7.1523 7.9844 3.2031 1.8242 6.9219 2.5625 10.594 2.1094 27.68-3.2852 42.34-4.0508 57.34 4.4844 15 8.5352 21.656 21.422 32.609 46.68 1.8984 4.3672 5.5938 7.7305 10.164 9.25 4.5703 1.5195 9.5781 1.0508 13.773-1.2891 4.1992-2.3398 7.1875-6.332 8.2188-10.973 16.75-75.977-3.3828-139.98-34.93-187.86-26.789-40.66-61.211-70.023-89.344-88.398l8.7422-14.922-29.371-16.707zm-10.75 51.758c25.609 14.566 64.562 44.355 92.309 86.469 20.605 31.277 35.332 68.965 35.57 113.68-5.625-6.2617-11.957-12.027-20.039-16.621-20.957-11.922-42.875-11.617-66.301-9.3789-9.7422-21.105-20.438-39.961-41.395-51.879-20.957-11.922-42.875-11.617-66.301-9.3789-9.7461-21.105-20.438-39.957-41.395-51.879-20.957-11.922-42.875-11.617-66.301-9.3789-9.7422-21.105-20.438-39.961-41.395-51.879-8.3086-4.7266-16.77-7.3398-25.332-8.9805 39.988-23.062 80.906-29.195 118.85-27.043 50.648 2.8711 95.91 21.598 121.72 36.281z"/>
  <use x="70" y="644" xlink:href="#t"/>
  <use x="90.550781" y="644" xlink:href="#b"/>
  <use x="104.359375" y="644" xlink:href="#d"/>
  <use x="123.347656" y="644" xlink:href="#a"/>
  <use x="142.242188" y="644" xlink:href="#c"/>
  <use x="155.628906" y="644" xlink:href="#d"/>
  <use x="174.617188" y="644" xlink:href="#m"/>
  <use x="204.410156" y="644" xlink:href="#l"/>
  <use x="224.453125" y="644" xlink:href="#h"/>
  <use x="252.453125" y="644" xlink:href="#a"/>
  <use x="271.34375" y="644" xlink:href="#b"/>
  <use x="285.15625" y="644" xlink:href="#g"/>
  <use x="294.75" y="644" xlink:href="#f"/>
  <use x="316.679688" y="644" xlink:href="#f"/>
  <use x="328.863281" y="644" xlink:href="#a"/>
  <use x="347.757812" y="644" xlink:href="#k"/>
  <use x="357.355469" y="644" xlink:href="#a"/>
  <use x="376.25" y="644" xlink:href="#b"/>
  <use x="399.804688" y="644" xlink:href="#h"/>
  <use x="418.058594" y="644" xlink:href="#j"/>
  <use x="437.992188" y="644" xlink:href="#s"/>
  <use x="447.589844" y="644" xlink:href="#g"/>
  <use x="457.1875" y="644" xlink:href="#a"/>
  <use x="476.082031" y="644" xlink:href="#i"/>
  <use x="496.015625" y="644" xlink:href="#c"/>
  <use x="509.398437" y="644" xlink:href="#e"/>
  <use x="70" y="672" xlink:href="#f"/>
  <use x="82.183594" y="672" xlink:href="#b"/>
  <use x="95.992188" y="672" xlink:href="#e"/>
  <use x="115.226562" y="672" xlink:href="#r"/>
  <use x="154.152344" y="672" xlink:href="#c"/>
  <use x="167.535156" y="672" xlink:href="#q"/>
  <use x="187.46875" y="672" xlink:href="#d"/>
  <use x="216.207031" y="672" xlink:href="#p"/>
  <use x="239.640625" y="672" xlink:href="#e"/>
  <use x="258.878906" y="672" xlink:href="#j"/>
  <use x="278.8125" y="672" xlink:href="#i"/>
  <use x="308.492188" y="672" xlink:href="#o"/>
  <use x="329.015625" y="672" xlink:href="#b"/>
  <use x="342.820312" y="672" xlink:href="#e"/>
  <use x="362.058594" y="672" xlink:href="#k"/>
  <use x="371.65625" y="672" xlink:href="#d"/>
  <use x="390.648438" y="672" xlink:href="#n"/>
  <use x="407.242188" y="672" xlink:href="#c"/>
 </g>
</svg>
